<svg xmlns="http://www.w3.org/2000/svg" viewBox="0 0 375.02 302.13"><circle cx="188.01" cy="150.92" r="150.92" fill="#09f"/><g style="animation:move-head 1s cubic-bezier(.41,.16,.24,.71) infinite alternate;transform-origin:center;transform-box:fill-box"><path stroke="#0d1932" stroke-miterlimit="10" stroke-width="4" d="M237.63 182.46a17.34 17.34 0 00-2.09-9.64c-4.65-7.93-9-23.37-15.67-38.16a25.7 25.7 0 00-3.67-5.93 83.49 83.49 0 00-9.23-9.5c-10.71-9.27-23.46-11.58-26.32-11.79v-.33h.23c0 .29-.09.3-.17.31s-.2 0 .65.72v93.1c-.9 14.32 9.85 25.85 22.94 25.56h0a22.65 22.65 0 0017.89-9.69c6-8.45 13.77-21.12 15.21-32.16a24.49 24.49 0 01.23-2.49z"/><path stroke="#0d1932" stroke-miterlimit="10" stroke-width="4" d="M192.75 103.96a53.18 53.18 0 00-23.69 11.47 89.19 89.19 0 00-12.61 13.91 27 27 0 00-2.92 5c-6.14 13.67-10.52 27.33-14.8 34.63-1.9 3.24-2.35 7.11-1.82 11.28 1.42 11.25 10 24.38 16.57 33a23.67 23.67 0 0015.64 9.49c14.29 1.83 26.49-10.36 26.49-25.72v-92.4a15.87 15.87 0 01-2.86-.66z"/><path fill="#fd916f" stroke="#0d1932" stroke-miterlimit="10" stroke-width="4" d="M195.41 213.16h-18.29l.98 15.59h18.29l-.98-15.59z"/><path fill="#fd916f" stroke="#0d1932" stroke-miterlimit="10" stroke-width="4" d="M196.08 224.39c0 2.1-4.07 3.8-9.08 3.8s-9.37-2.5-9.37-4.6 4.35-2.37 9.37-2.37 9.08 1.08 9.08 3.17z"/><path fill="#c17b62" d="M166.15 176.41c0 5.55-3.93 10-8.78 10s-10.15-6.62-10.15-12.16 1.75-7.92 6.59-7.92 12.34 4.54 12.34 10.08zm42.91 0c0 5.55 3.93 10 8.77 10s10.15-6.62 10.15-12.16-1.74-7.92-6.59-7.92-12.33 4.54-12.33 10.08z"/><path fill="#d9ad89" d="M222.55 160.43c0 28-15.54 56-34.7 56s-34.72-27.92-34.72-56 15.55-44.83 34.72-44.83 34.7 16.79 34.7 44.83z"/><path fill="#36476f" stroke="#0e1a32" stroke-miterlimit="10" stroke-width="4" d="M238.21 180.74a.71.71 0 000-.25c0-.43-.07-.86-.11-1.32l-.1-1.12a126.37 126.37 0 00-2.16-13.23c-7.74-34.51-15.18-49.47-21-54.44-2.19-1.87-10.42-6.42-17.09-7.44a27.8 27.8 0 00-3.36-.5 1 1 0 01-.34-.08l-4.87-2.32a3.2 3.2 0 00-4.55 2.4h0-.16c-.12 0 .42-1.23.37-1.23s-.64 1.21-.64 1.21h0c-35.28 4.87-46.79 41.86-47.12 76.27a.91.91 0 001.34.8c30.55-16.38 26.73-19.21 61.76-15.9 9.09.86 13.59-.19 21.46 2.75 8.88 3.32 14.13 8.81 16.24 16.08.09-.53.2-1.11.33-1.68z"/><path fill="none" stroke="#fff" stroke-linecap="round" stroke-miterlimit="10" stroke-width="4" d="M222.33 179.9s4.81 44.64-35.56 44.8-33.86-44.8-33.86-44.8"/></g><path fill="#36476f" stroke="#0e1a32" stroke-miterlimit="10" stroke-width="4" d="M333.57 300.11c-30.83-63.54-77.64-72.2-77.64-72.2v-.8H128.47s-44.9 7-78.7 72.09h84.26z"/><path stroke-linecap="round" fill="#fff" stroke="#0d1932" stroke-miterlimit="10" stroke-width="4" d="M119.43 282.96l-45.2-7.35M258.88 282.96l45.19-7.35" style="animation:typing .2s cubic-bezier(.18,.85,.72,.22) infinite alternate;transform-origin:center;transform-box:fill-box"/><path fill="#565c68" stroke="#000" stroke-miterlimit="10" stroke-width="4" d="M255.02 291.74h-131.1c-2.47 0-4.5-2.32-4.5-5.16v-88.72h140.09v88.72c0 2.84-2.02 5.16-4.49 5.16z"/><path fill="#606c71" stroke="#000" stroke-miterlimit="10" stroke-width="4" d="M260.33 296.61a2.36 2.36 0 01-2.27 2.43H121.38a2.36 2.36 0 01-2.27-2.43h0c0-1.35 1-2.44 2-4.87h136.66c1.49 2.43 2.51 3.52 2.51 4.87z"/><path fill="#373e46" d="M238.05 200.11s16.61 49.37-10.26 57-45.19 11.19-54.86 10.18-21.89-10.18-29.52-16.8-19.53-16.61-20.2-23.32 4.71-24.85 22.82-27.07 92.02.01 92.02.01z"/><ellipse cx="188.01" cy="247.96" fill="#989fa4" rx="6.27" ry="6.71"/><g class="float"><path fill="#e6e9ed" d="M108.24 99.17a.8.8 0 01-.8-.8v-4a.8.8 0 01.8-.8h9.61v-3.88a11.58 11.58 0 01-8.71-5.74.47.47 0 010-.51 11.61 11.61 0 018.71-5.74v-10a.5.5 0 00-.49-.5H95.9a.5.5 0 00-.5.5v35.26a.49.49 0 00.5.49h21.43a.49.49 0 00.49-.49v-3.82z"/><path fill="#fb8276" d="M109.14 83.94a.47.47 0 010-.51 11.57 11.57 0 015.68-5v-1.69a.49.49 0 00-.49-.49h-15.4a.5.5 0 00-.5.49v10.37a.5.5 0 00.5.49h13.45a11.59 11.59 0 01-3.24-3.66z"/><path fill="#c7fffd" d="M119.17 89.76a11.58 11.58 0 01-10-5.82.47.47 0 010-.51 11.56 11.56 0 0120.06 0 .52.52 0 010 .51 11.61 11.61 0 01-10.06 5.82z"/><path fill="#046699" d="M122.8 83.69a3.64 3.64 0 10-3.63 3.63 3.64 3.64 0 003.63-3.63z"/><path fill="#fff" d="M119.17 80.05a3.81 3.81 0 00-1.08.16v.45a3.64 3.64 0 003.64 3.64 3.47 3.47 0 001.07-.17 3.15 3.15 0 000-.44 3.64 3.64 0 00-3.63-3.64z"/><path fill="#ffc502" d="M133.76 60.32a6.85 6.85 0 00-6.86 6.83 6.77 6.77 0 00.93 3.43 6.93 6.93 0 002.42 2.45l.31.18v1.67h6.4v-1.67l.31-.18a6.84 6.84 0 003.34-5.88 6.84 6.84 0 00-6.85-6.83z"/><path fill="#fff" d="M133.72 66.28a1.32 1.32 0 00-1.32 1.32v1.61a1.32 1.32 0 001.32 1.32h.08a1.33 1.33 0 001.32-1.32V67.6a1.33 1.33 0 00-1.32-1.32z"/><path fill="#9ea7af" d="M132.17 79.11v1.78a.55.55 0 00.55.55h2.08a.55.55 0 00.55-.55v-1.78z"/><path fill="#c6a07d" d="M137.62 78.69a.43.43 0 01-.44.44h-6.85a.44.44 0 01-.45-.44v-3.37a.45.45 0 01.45-.44h6.84a.44.44 0 01.44.44z"/><path fill="#ffc502" d="M108.24 99.17a.8.8 0 01-.8-.8v-4a.8.8 0 01.8-.8h23.18a3.64 3.64 0 011.51.39l3.74 2c.39.21.39.56 0 .77l-3.74 2a3.78 3.78 0 01-1.51.38z"/><path fill="#ffd5b3" d="M131.1 99.17h.32a3.78 3.78 0 001.51-.38l3.74-2c.39-.21.39-.56 0-.77l-3.74-2a3.64 3.64 0 00-1.51-.39h-.32z"/><path fill="#046699" d="M134.16 98.11l2.51-1.37c.39-.21.39-.56 0-.77l-2.51-1.37z"/><path fill="#ef5050" d="M107.44 94.36v4a.8.8 0 00.8.8h3.86v-5.61h-3.86a.8.8 0 00-.8.81z"/><path d="M141.05 65.04a.74.74 0 00-1.42.41 6.09 6.09 0 01-2.74 6.94l-.31.19a.73.73 0 00-.36.63v.9h-1.72v-3a2.05 2.05 0 001.36-1.93v-1.61a2.06 2.06 0 00-2.06-2.06h-.08a2.06 2.06 0 00-2.06 2.06v1.61a2.05 2.05 0 001.36 1.93v3h-1.69v-.93a.73.73 0 00-.36-.63l-.31-.19a6.06 6.06 0 01-3-5.24 6.12 6.12 0 0110.39-4.36.74.74 0 101-1.06 7.58 7.58 0 00-11.86 9.22 7.67 7.67 0 002.63 2.68v.63a1.19 1.19 0 00-.66 1.06v3.37a1.18 1.18 0 001.18 1.18h1.09v1a1.28 1.28 0 001.29 1.28h2.08a1.28 1.28 0 001.29-1.28v-1h1.09a1.18 1.18 0 001.18-1.18v-3.37a1.19 1.19 0 00-.66-1.06v-.63a7.67 7.67 0 002.63-2.68 7.58 7.58 0 00.72-5.91zm-7.91 2.56a.59.59 0 01.58-.59h.08a.59.59 0 01.58.59v1.61a.58.58 0 01-.58.58h-.08a.58.58 0 01-.58-.58zm1.47 13.12h-1.7v-.85h1.7zm2.28-2.32h-6.26v-2.78h6.26zm-3.13-19.72a.74.74 0 00.74-.74v-1.22a.74.74 0 00-1.48 0v1.22a.74.74 0 00.74.74zm-4.51.43a.77.77 0 00.68.44.82.82 0 00.3-.07.73.73 0 00.37-1l-.5-1.12a.74.74 0 00-1.35.6zm-3.92 1.7l.92.82a.7.7 0 00.49.19.76.76 0 00.55-.25.74.74 0 00-.06-1l-.91-.82a.75.75 0 00-1.05.06.74.74 0 00.06 1zm-1.9 3.99l1.17.38a.91.91 0 00.23 0 .74.74 0 00.22-1.44l-1.17-.37a.74.74 0 00-.45 1.4zm-.21 4.44h.11l1.22-.13a.74.74 0 00.66-.81.75.75 0 00-.82-.66l-1.22.14a.74.74 0 00.08 1.47zm1.03 2.81a.74.74 0 00-.26 1 .72.72 0 00.64.37.74.74 0 00.37-.1l1.05-.62a.73.73 0 00.27-1 .73.73 0 00-1-.26zm13.08-12.61a.82.82 0 00.3.07.74.74 0 00.67-.44l.5-1.12a.734.734 0 10-1.34-.6l-.5 1.12a.73.73 0 00.37.97zm3.42 2.38a.7.7 0 00.49-.19l.92-.82a.73.73 0 000-1 .74.74 0 00-1-.06l-.91.82a.73.73 0 00-.06 1 .76.76 0 00.56.25zm1.24 2.88a.74.74 0 00.7.51.91.91 0 00.23 0l1.16-.38a.74.74 0 10-.45-1.4l-1.16.37a.74.74 0 00-.48.9zm2.34 3.07l-1.22-.14a.74.74 0 00-.16 1.47l1.22.13h.16a.74.74 0 00.08-1.47zm-1.07 4.28l-1.05-.61a.74.74 0 00-.75 1.27l1.06.62a.74.74 0 00.74-1.28zm-40.37.94h7.44a.74.74 0 000-1.48h-7.48a.74.74 0 000 1.48zm-3.45 18.56h14.38a.74.74 0 000-1.47H99.44a.74.74 0 100 1.47zm24.1-7.86a4.38 4.38 0 10-4.37 4.37 4.38 4.38 0 004.37-4.37zm-4.37-2.9a2.9 2.9 0 012.89 2.74 2.19 2.19 0 01-.36 0 2.9 2.9 0 01-2.89-2.75 2.06 2.06 0 01.36.01zm-2.9 2.9a2.9 2.9 0 011.12-2.29 4.37 4.37 0 004.31 3.63 2.89 2.89 0 01-5.46-1.34z"/><path d="M137.02 95.33l-3.73-2a4.51 4.51 0 00-1.87-.48h-12.83v-2.34h.58a12.32 12.32 0 0010.67-6.18 1.27 1.27 0 000-1.25 12.34 12.34 0 00-10.67-6.18h-.58v-9.16a1.23 1.23 0 00-1.23-1.23h-13.55a.74.74 0 000 1.47h13.3v9.08a14 14 0 00-1.55.37v-.64a1.23 1.23 0 00-1.23-1.23h-15.4a1.23 1.23 0 00-1.23 1.23v10.32a1.24 1.24 0 001.23 1.23h13.22a12.45 12.45 0 005 2v2.5h-8.87a1.55 1.55 0 00-1.32.76h-7.48a.74.74 0 100 1.47h7.26v2h-7.26a.74.74 0 100 1.47h7.27a1.54 1.54 0 001.53 1.36h8.87v2.83h-21V67.97h4.13a.74.74 0 100-1.47h-4.37a1.23 1.23 0 00-1.23 1.23v35.26a1.23 1.23 0 001.23 1.23h21.42a1.23 1.23 0 001.23-1.23v-3.08h12.83a4.5 4.5 0 001.87-.47l3.73-2a1.18 1.18 0 00.68-1 1.19 1.19 0 00-.65-1.11zm-25.69 3.11h-3.13a.08.08 0 01-.07-.07v-4s0-.06.07-.06h3.13zm-12.2-11.63v-9.79h14.91v1a12.35 12.35 0 00-5.58 5.08 1.22 1.22 0 000 1.25 12.31 12.31 0 001.9 2.5zm10.67-3.12a10.81 10.81 0 0118.65 0 10.82 10.82 0 01-18.65 0zm20.53 11.94h-3a.74.74 0 000 1.47h3v1.34h-17.49v-1.33h11a.74.74 0 100-1.47h-11v-1.33h17.49zm3.06 2l-.84.46a3 3 0 01-.75.25v-4a3 3 0 01.75.24l.84.46zm1.47-.8v-1l.94.51z"/><g class="float"><g fill="#4dbbeb"><path d="M116.02 146.44v3.47h-3.47v-3.47H116.02zM114.33 127.35a1.74 1.74 0 11-1.74 1.74 1.74 1.74 0 011.74-1.74z"/></g><path fill="#e2e2e2" d="M85.99 151.91l8.68-15.88 8.66 15.88-3.46 9.2H89.46z"/><path fill="#feb756" d="M99.87 161.11a1.74 1.74 0 011.74 1.74 1.74 1.74 0 01-1.74 1.74H89.46a1.74 1.74 0 01-1.74-1.74 1.74 1.74 0 011.74-1.74z"/><g fill="#4dbbeb"><path d="M89.46 164.58h10.41v5.47H89.46zM96.41 129.17v1.65h-3.47V127.35h3.47v1.82zM94.67 150.17a1.74 1.74 0 11-1.74 1.74 1.74 1.74 0 011.74-1.74zM76.8 146.44v3.47h-3.48v-3.47h3.48zM75.05 127.35a1.74 1.74 0 11-1.72 1.76 1.74 1.74 0 011.72-1.76z"/></g><path d="M116.01 145.57h-1a19.62 19.62 0 00-2.33-7.09.87.87 0 00-1.52.85 18 18 0 012.1 6.24h-.68a.87.87 0 00-.87.87v3.47a.87.87 0 00.87.87h3.47a.87.87 0 00.87-.87v-3.47a.87.87 0 00-.91-.87zm-.87 3.47h-1.73v-1.73h1.73zm-10.93 2.83a.43.43 0 010-.05.15.15 0 000-.07.24.24 0 000-.08v-.08l-8.78-15.98a.88.88 0 00-1.53 0l-8.67 15.88a.36.36 0 000 .09.24.24 0 000 .08v.07a.07.07 0 010 .05v.14a.13.13 0 010 .06v.06l3.13 8.3a2.41 2.41 0 00-.69.49 2.6 2.6 0 001 4.29v4.75a.87.87 0 00.87.87h10.41a.87.87 0 00.87-.87v-4.74a2.64 2.64 0 001-.62 2.59 2.59 0 00-.69-4.17l3.13-8.3v-.06a.13.13 0 010-.06.13.13 0 000-.06zm-4.34.9h2.22l-2.82 7.47h-9.21l-2.82-7.47h2.22a.87.87 0 100-1.73h-2l6.35-11.61v10a2.61 2.61 0 101.73 0v-10l6.35 11.61h-2a.87.87 0 100 1.73zm-5.2-1.73a.87.87 0 11-.87.87.87.87 0 01.87-.87zm-4.34 18.13v-3.73H99v3.73zm10.16-5.72a.87.87 0 01-.62.26H89.46a.87.87 0 01-.87-.87.89.89 0 01.87-.87h10.41a.87.87 0 01.62 1.48zm-22.61-25.34a.86.86 0 00-1.18.33 19.64 19.64 0 00-2.34 7.09h-1a.87.87 0 00-.87.87v3.47a.87.87 0 00.87.87h3.47a.87.87 0 00.87-.87v-3.47a.87.87 0 00-.87-.87h-.68a18 18 0 012.1-6.24.87.87 0 00-.37-1.18zm-2 10.89h-1.73v-1.69h1.73zm32.16-16.09a19.17 19.17 0 00-4.94-3h8.72a2.61 2.61 0 100-1.73H97.27v-.87a.87.87 0 00-.87-.87h-3.47a.87.87 0 00-.87.87v.87H77.51a2.61 2.61 0 100 1.73h8.72a19.17 19.17 0 00-4.94 3 .86.86 0 00-.11 1.22.85.85 0 00.67.31.88.88 0 00.56-.2 19.52 19.52 0 019.65-4.1v.68a.87.87 0 00.87.87h3.47a.87.87 0 00.87-.87v-.71a19.56 19.56 0 019.66 4.1.83.83 0 00.55.2.85.85 0 00.67-.31.86.86 0 00-.11-1.19zm6.24-4.69a.87.87 0 11-.87.87.87.87 0 01.92-.87zm-39.23 1.73a.87.87 0 11.87-.86.87.87 0 01-.87.86zm20.48 0H93.8v-1.73h1.73v1.73zm14.41 5.21a.87.87 0 10.87.87.87.87 0 00-.87-.87zm-30.55 0a.87.87 0 10.87.87.86.86 0 00-.87-.87z"/></g><path fill="#0277bd" stroke="#000" stroke-miterlimit="10" d="M283.01 71.22h-37.85l3.34 37.89 15.59 4.45 15.58-4.45 3.34-37.86z"/><path fill="#039be5" d="M264.09 74.56v35.55l12.47-3.56 2.78-32z"/><path fill="#fff" d="M274.22 80.11h-10.13v4.45h5.45l-.33 4.46h-5.12v4.45h4.9l-.34 5-4.56 1.64v4.68l8.79-2.9.78-12.8z"/><path fill="#eee" d="M264.09 80.11v4.45h-9.91l-.34-4.45zm-5.12 8.91l.22 4.45h4.9v-4.45zm.44 6.68h-4.45l.33 6.12 8.8 2.9v-4.61l-4.57-1.56z"/><g class="float" stroke="#000" stroke-miterlimit="10"><path fill="#ffd600" d="M174.02 86.18V44.03h42.15v42.15z"/><path fill="#000001" d="M201.58 75.58c.81 1.31 1.69 2.57 3.56 2.57 1.56 0 2.39-.78 2.39-1.85 0-1.29-.85-1.75-2.58-2.5l-.94-.4c-2.73-1.16-4.54-2.61-4.54-5.67 0-2.82 2.16-5 5.53-5a5.59 5.59 0 015.38 3l-2.94 1.88A2.59 2.59 0 00205 66a1.65 1.65 0 00-1.81 1.61c0 1.13.71 1.59 2.33 2.29l.94.4c3.22 1.37 5 2.77 5 5.91 0 3.39-2.67 5.24-6.26 5.24a6.91 6.91 0 01-6.62-3.94zm-13.56.09a3.19 3.19 0 002.78 1.88c1.24 0 2-.49 2-2.39v-12.4h3.9v13c0 3.94-2.29 5.73-5.63 5.73a6.85 6.85 0 01-6.08-3.94z"/></g><g class="float"><g fill="#e6eaea"><path d="M277.97 131.24h34.55v33.95h-34.55z"/><path d="M277.97 131.24h17.27v33.95h-17.27z"/></g><g fill="#cdd4d5"><path d="M277.97 131.24h17.27v33.95h-17.27z"/><path d="M277.97 131.24h34.55v7.15h-34.55z"/></g><path fill="#687f82" d="M277.97 131.24h17.27v7.15h-17.27z"/><path d="M307.15 134.18h-6.55a.56.56 0 010-1.12h6.55a.56.56 0 110 1.12zm2.98 0h-1.19a.56.56 0 010-1.12h1.19a.56.56 0 110 1.12z" fill="#fff"/><circle cx="295.84" cy="134.82" r="1.79" fill="#4acfd9"/><circle cx="289.29" cy="134.82" r="1.79" fill="#ff8c29"/><g fill="#f0353d"><circle cx="282.74" cy="134.82" r="1.79"/><path d="M287.5 158.04a1.13 1.13 0 01-.75-.28l-5.66-5.06a1.16 1.16 0 01-.37-.82 1.14 1.14 0 01.35-.83l5.66-5.36a1.114 1.114 0 111.53 1.62l-4.77 4.53 4.75 4.25a1.12 1.12 0 01.09 1.58 1.1 1.1 0 01-.83.37zm15.48 0a1.13 1.13 0 00.75-.28l5.66-5.06a1.16 1.16 0 00.37-.82 1.14 1.14 0 00-.35-.83l-5.66-5.36a1.12 1.12 0 00-1.54 1.62l4.78 4.53-4.75 4.27a1.12 1.12 0 00-.09 1.58 1.1 1.1 0 00.83.35zm-10.72 0a1.15 1.15 0 01-.56-.15 1.12 1.12 0 01-.41-1.52l5.66-9.83a1.12 1.12 0 011.94 1.12l-5.66 9.82a1.12 1.12 0 01-.97.56z"/></g><path d="M312.67 130.61h-34.62a.56.56 0 00-.56.55v34a.56.56 0 00.56.56h34.62a.56.56 0 00.56-.56v-34a.56.56 0 00-.56-.55zm-.64 1.19v5.95h-33.35v-5.95zm-33.35 32.75v-25.61h33.35v25.61z"/><path d="M295.84 137.16a2.35 2.35 0 10-2.35-2.35 2.35 2.35 0 002.35 2.35zm0-3.57a1.23 1.23 0 11-1.23 1.22 1.22 1.22 0 011.23-1.22zm-6.51 3.57a2.35 2.35 0 10-2.34-2.35 2.35 2.35 0 002.34 2.35zm0-3.57a1.23 1.23 0 11-1.22 1.22 1.23 1.23 0 011.22-1.22zm-6.6 3.57a2.35 2.35 0 10-2.34-2.35 2.35 2.35 0 002.34 2.35zm0-3.57a1.23 1.23 0 11-1.23 1.22 1.23 1.23 0 011.23-1.22zm6.44 12.96a1.67 1.67 0 00-.46-1.2 1.65 1.65 0 00-1.17-.52 1.69 1.69 0 00-1.2.46l-5.65 5.36a1.66 1.66 0 000 2.46l5.66 5.06a1.65 1.65 0 001.12.43 1.67 1.67 0 001.11-2.92l-4.3-3.85 4.34-4.11a1.69 1.69 0 00.55-1.17zm-1.29.36l-4.78 4.52a.58.58 0 000 .83l4.76 4.25a.56.56 0 010 .79.52.52 0 01-.41.18.59.59 0 01-.38-.14l-5.65-5.06a.53.53 0 01-.19-.41.57.57 0 01.17-.41l5.66-5.36a.57.57 0 01.39-.16.57.57 0 01.39.18.54.54 0 01.15.4.52.52 0 01-.11.39zm21.91 3.74l-5.66-5.36a1.673 1.673 0 00-2.3 2.43l4.34 4.11-4.3 3.85a1.67 1.67 0 001.11 2.92 1.65 1.65 0 001.12-.43l5.66-5.06a1.66 1.66 0 000-2.46zm-.59 1.22a.53.53 0 01-.19.41l-5.68 5.06a.55.55 0 01-.37.14.52.52 0 01-.41-.18.56.56 0 010-.79l4.75-4.25a.56.56 0 00.19-.41.59.59 0 00-.17-.42l-4.78-4.52a.56.56 0 010-.79.53.53 0 01.4-.18.54.54 0 01.39.16l5.65 5.36a.54.54 0 01.18.41zm-10.44-6.22a1.68 1.68 0 00-2.29.61l-5.66 9.85a1.68 1.68 0 00.62 2.29 1.72 1.72 0 00.83.22 1.66 1.66 0 001.45-.84l5.66-9.83a1.66 1.66 0 00-.61-2.28zm-.36 1.73l-5.65 9.82a.57.57 0 11-1-.55l5.66-9.83a.56.56 0 01.76-.21.59.59 0 01.26.34.54.54 0 01-.03.43z"/></g></g><g stroke="#0e1a32" stroke-miterlimit="10" stroke-width="2"><path fill="#59747f" d="M46.77 260.72c0 2.53-10.24 4.58-22.89 4.58S1 263.25 1 260.72s10.24-4.61 22.88-4.61 22.89 2.05 22.89 4.58"/><path fill="#3a4d57" d="M53.1 264.99a6.82 6.82 0 00-5.45-2.69h-1.74l-.85 4.57h2.59a2.28 2.28 0 012.2 2.89l-1.67 6.15a15.69 15.69 0 01-6.5 8.95l-1.06 5.7a20.27 20.27 0 0012-13.44l1.68-6.15a6.82 6.82 0 00-1.17-6"/><path fill="#3a4d57" d="M23.88 264.3C11.24 264.3 1 262.25 1 259.72l6.86 36.62c0 2.53 7.18 4.58 16 4.58s16-2.05 16-4.58l6.86-36.62c0 2.53-10.24 4.58-22.89 4.58"/><path fill="#304149" d="M23.88 264.11c-13.54 0-21.24-2.23-21.75-3.49.51-1.14 8.21-3.38 21.75-3.38s21.25 2.24 21.76 3.49c-.51 1.15-8.21 3.38-21.76 3.38"/><path fill="#56473f" d="M6.09 262.42a76.21 76.21 0 0017.79 1.69 78.42 78.42 0 0017.8-1.7 76.31 76.31 0 00-17.8-1.73 78.32 78.32 0 00-17.79 1.7"/></g><path fill="none" stroke="#0e1a32" stroke-miterlimit="10" stroke-width="4" d="M1 300.11h374.02"/><style>@keyframes typing{0%{transform:rotateZ(-10deg)}to{transform:rotateZ(10deg)}}@keyframes move-head{0%{transform:translateY(0)}to{transform:translateY(5px)}}@keyframes float{0%{transform:translateY(0)}to{transform:translateY(5px)}}.float{animation:float 3s cubic-bezier(.41,.16,.24,.71) infinite alternate;transform-origin:center;transform-box:fill-box}</style></svg>